<svg width="21" height="20" viewBox="0 0 21 20" fill="none" xmlns="http://www.w3.org/2000/svg">
<path d="M19.9804 5.8801C19.9336 4.8174 19.7617 4.0868 19.5156 3.4537C19.2616 2.7818 18.8709 2.1801 18.359 1.68C17.8589 1.1721 17.2533 0.7774 16.5891 0.5274C15.9524 0.2813 15.2256 0.1094 14.163 0.0626001C13.0924 0.0118001 12.7525 0 10.0371 0C7.32172 0 6.98182 0.0118004 5.91522 0.0586004C4.85252 0.1055 4.12192 0.2775 3.48902 0.5235C2.81692 0.7774 2.21532 1.1681 1.71522 1.68C1.20732 2.1801 0.812717 2.7857 0.562617 3.4499C0.316417 4.0868 0.144617 4.8134 0.0977173 5.8761C0.0469173 6.9467 0.0352173 7.2866 0.0352173 10.002C0.0352173 12.7173 0.0469168 13.0572 0.0938168 14.1239C0.140617 15.1865 0.312617 15.9171 0.558817 16.5502C0.812717 17.2221 1.20732 17.8238 1.71522 18.3239C2.21532 18.8318 2.82092 19.2265 3.48512 19.4765C4.12192 19.7226 4.84862 19.8945 5.91142 19.9413C6.97792 19.9883 7.31792 19.9999 10.0333 19.9999C12.7487 19.9999 13.0885 19.9883 14.1552 19.9413C15.2179 19.8945 15.9484 19.7226 16.5813 19.4765C17.9254 18.9568 18.9881 17.8941 19.5078 16.5502C19.7538 15.9133 19.9258 15.1865 19.9727 14.1239C20.0195 13.0572 20.0313 12.7173 20.0313 10.002C20.0313 7.2866 20.0273 6.9467 19.9804 5.8801ZM18.1794 14.0457C18.1364 15.0225 17.9723 15.5499 17.8356 15.9015C17.4995 16.7728 16.808 17.4643 15.9367 17.8004C15.5851 17.9372 15.0538 18.1012 14.0809 18.1441C13.026 18.1911 12.7096 18.2027 10.0411 18.2027C7.37262 18.2027 7.05222 18.1911 6.00112 18.1441C5.02442 18.1012 4.49692 17.9372 4.14532 17.8004C3.71172 17.6402 3.31702 17.3862 2.99672 17.0541C2.66462 16.7298 2.41062 16.3391 2.25042 15.9055C2.11372 15.5539 1.94962 15.0225 1.90672 14.0497C1.85972 12.9948 1.84812 12.6783 1.84812 10.0097C1.84812 7.3412 1.85972 7.0209 1.90672 5.9699C1.94962 4.9932 2.11372 4.4657 2.25042 4.1141C2.41062 3.6804 2.66462 3.2859 3.00072 2.9654C3.32482 2.6333 3.71552 2.3793 4.14932 2.2192C4.50092 2.0825 5.03232 1.9184 6.00512 1.8754C7.06002 1.8285 7.37652 1.8168 10.0449 1.8168C12.7174 1.8168 13.0337 1.8285 14.0848 1.8754C15.0616 1.9184 15.589 2.0825 15.9407 2.2192C16.3742 2.3793 16.7689 2.6333 17.0893 2.9654C17.4213 3.2897 17.6753 3.6804 17.8356 4.1141C17.9723 4.4657 18.1364 4.997 18.1794 5.9699C18.2263 7.0248 18.238 7.3412 18.238 10.0097C18.238 12.6783 18.2263 12.9908 18.1794 14.0457Z" fill="#AFB1B8"/>
<path d="M10.0371 4.8642C7.20071 4.8642 4.89941 7.1654 4.89941 10.0019C4.89941 12.8385 7.20071 15.1396 10.0371 15.1396C12.8737 15.1396 15.1749 12.8385 15.1749 10.0019C15.1749 7.1654 12.8737 4.8642 10.0371 4.8642ZM10.0371 13.3346C8.19701 13.3346 6.70441 11.8422 6.70441 10.0019C6.70441 8.1617 8.19701 6.6692 10.0371 6.6692C11.8774 6.6692 13.3698 8.1617 13.3698 10.0019C13.3698 11.8422 11.8774 13.3346 10.0371 13.3346Z" fill="#AFB1B8"/>
<path d="M16.5777 4.66107C16.5777 5.32347 16.0407 5.86047 15.3781 5.86047C14.7158 5.86047 14.1787 5.32347 14.1787 4.66107C14.1787 3.99857 14.7158 3.46167 15.3781 3.46167C16.0407 3.46167 16.5777 3.99857 16.5777 4.66107Z" fill="#AFB1B8"/>
</svg>
