<svg width="20" height="20" viewBox="0 0 20 20" fill="none" xmlns="http://www.w3.org/2000/svg">
<path d="M19.995 20V19.9992H20V12.6642C20 9.07591 19.228 6.31171 15.033 6.31171C13.016 6.31171 11.663 7.41841 11.11 8.46751H11.052V6.64671H7.07397V19.9992H11.216V13.3875C11.216 11.6467 11.546 9.96341 13.702 9.96341C15.826 9.96341 15.858 11.95 15.858 13.4992V20H19.995Z" fill="#AFB1B8"/>
<path d="M0.329956 6.64752H4.47696V20H0.329956V6.64752Z" fill="#AFB1B8"/>
<path d="M2.40199 0C1.07599 0 0 1.0758 0 2.4017C0 3.7275 1.07599 4.8258 2.40199 4.8258C3.72699 4.8258 4.80299 3.7275 4.80299 2.4017C4.80199 1.0758 3.72699 0 2.40199 0Z" fill="#AFB1B8"/>
</svg>
